PathFileType        4      (X/Y/Z)      C:\Users\pc\Desktop\IMUTRC\Sujet_07\Sujet_07_Tpose.trc         
DataRate	CameraRate	NumFrames	NumMarkers	Units	OrigDataRate	OrigDataStartFrame	OrigNumFrames
60.0	60.0	4	64	mm	60.0	37	146
Frame#	Time	pHipOrigin			pRightASI			pLeftASI			pRightCSI			pLeftCSI			pRightIschialTub			pLeftIschialTub			pSacrum			pL5SpinalProcess			pL3SpinalProcess			pT12SpinalProcess			pIJ			pT4SpinalProcess			pT8SpinalProcess			pPX			pC7SpinalProcess			pTopOfHead			pRightAuricularis			pLeftAuricularis			pBackOfHead			pRightAcromion			pLeftAcromion			pRightArmLatEpicondyle			pRightArmMedEpicondyle			pLeftArmLatEpicondyle			pLeftArmMedEpicondyle			pRightUlnarStyloid			pRightRadialStyloid			pRightOlecranon			pLeftUlnarStyloid			pLeftRadialStyloid			pLeftOlecranon			pRightTopOfHand			pRightPinky			pRightBallHand			pLeftTopOfHand			pLeftPinky			pLeftBallHand			pRightGreaterTrochanter			pRightKneeLatEpicondyle			pRightKneeMedEpicondyle			pRightPatella			pLeftGreaterTrochanter			pLeftKneeLatEpicondyle			pLeftKneeMedEpicondyle			pLeftPatella			pRightTibialTub			pRightLatMalleolus			pRightMedMalleolus			pLeftTibialTub			pLeftLatMalleolus			pLeftMedMalleolus			pRightHeelFoot			pRightFirstMetatarsal			pRightFifthMetatarsal			pRightPivotFoot			pRightHeelCenter			pRightToe			pLeftHeelFoot			pLeftFirstMetatarsal			pLeftFifthMetatarsal			pLeftPivotFoot			pLeftHeelCenter			pLeftToe			
		X1	Y1	Z1	X2	Y2	Z2	X3	Y3	Z3	X4	Y4	Z4	X5	Y5	Z5	X6	Y6	Z6	X7	Y7	Z7	X8	Y8	Z8	X9	Y9	Z9	X10	Y10	Z10	X11	Y11	Z11	X12	Y12	Z12	X13	Y13	Z13	X14	Y14	Z14	X15	Y15	Z15	X16	Y16	Z16	X17	Y17	Z17	X18	Y18	Z18	X19	Y19	Z19	X20	Y20	Z20	X21	Y21	Z21	X22	Y22	Z22	X23	Y23	Z23	X24	Y24	Z24	X25	Y25	Z25	X26	Y26	Z26	X27	Y27	Z27	X28	Y28	Z28	X29	Y29	Z29	X30	Y30	Z30	X31	Y31	Z31	X32	Y32	Z32	X33	Y33	Z33	X34	Y34	Z34	X35	Y35	Z35	X36	Y36	Z36	X37	Y37	Z37	X38	Y38	Z38	X39	Y39	Z39	X40	Y40	Z40	X41	Y41	Z41	X42	Y42	Z42	X43	Y43	Z43	X44	Y44	Z44	X45	Y45	Z45	X46	Y46	Z46	X47	Y47	Z47	X48	Y48	Z48	X49	Y49	Z49	X50	Y50	Z50	X51	Y51	Z51	X52	Y52	Z52	X53	Y53	Z53	X54	Y54	Z54	X55	Y55	Z55	X56	Y56	Z56	X57	Y57	Z57	X58	Y58	Z58	X59	Y59	Z59	X60	Y60	Z60	X61	Y61	Z61	X62	Y62	Z62	X63	Y63	Z63	X64	Y64	Z64	
37	0.6	0.8148844694267569	1002.4029	-3.0450813033458894	67.05131654512624	1106.28924	141.09193302945778	78.30941264528185	1104.21003	-142.91312141250486	22.49321467661884	1176.98245	113.56564935454229	31.75854328673784	1175.34878	-120.05703054700538	-60.89929014816812	944.11071	53.50036468150604	-56.280225696478155	943.29388	-63.36168963225628	-68.9054878812896	1025.71978	-5.998974069284793	-29.9397404001419	1117.72491	-5.024148461531619	-31.737724605630632	1234.60632	-6.6624284664187625	-51.01336690002024	1339.458	-9.21669666401242	51.415597985095246	1595.64661	-10.786948011720858	-94.22278594137481	1535.34947	-14.870987518852191	-76.42163074972957	1443.4186	-12.139072744200256	80.99205180817886	1471.19093	-6.915748741016453	-104.35127984163837	1594.53275	-13.516081479444262	-37.113738505894176	1861.78573	-13.539059248965732	-27.79632526882517	1756.19147	53.491187629315945	-61.23019222298221	1763.3202	-87.31289611258596	-99.79015541080157	1763.39446	-3.5943607332972562	-72.28093590809118	1577.75054	174.94683341144372	-58.645209348350534	1575.67133	-202.43399778814353	-39.864503722813566	1505.42367	449.0975858664319	15.193615323428162	1474.82955	435.2689263091656	-33.94406571160579	1464.582	-470.96063357204207	20.315107753508443	1433.91363	-454.29651879031303	79.34392035052008	1434.43343	681.7817786812012	70.59485772208961	1486.48799	693.965299672245	-11.320520103339447	1465.84438	432.47979598708895	-24.511385461402824	1383.93829	-717.3484750169451	-43.733181966168274	1433.83937	-725.7880868579415	0.7815246499461068	1426.33936	-454.7703404010741	251.0800687087123	1433.39383	775.9604642286259	181.21447305082415	1407.84922	716.6738456091517	116.25035939895173	1442.15622	686.0264111228736	16.209157415418815	1381.04224	-911.8886441913874	17.95333459892572	1358.17091	-819.5629476906236	-4.1429633635456184	1392.40365	-751.2909769604427	-7.719145066520241	970.99195	171.8355914462078	-56.003445646343124	529.97626	153.73359325838842	-52.38885468281055	526.4119	68.01733806097062	-6.044339429951407	526.11487	110.1227629908678	5.113753511200528	970.47215	-178.31304089878302	-52.24883102921444	530.27329	-168.21573002131933	-55.034692508658786	525.89209	-82.44973639607267	-5.769842091665495	525.07526	-121.14520034558586	4.575345536345786	489.80292	112.22400906886568	-65.2131471967757	84.28233999999999	159.73474426628343	-62.41647813726514	81.46055	94.29661136325528	6.431813916229579	491.5851	-122.67508848773817	-43.180886302926766	84.35660000000001	-179.61493100747583	-45.175998264580095	80.71798	-114.22849572310386	-102.54497907994454	-7.138061680832742E-15	116.5733938275516	65.85805157663908	0.5940599999999917	136.02998858176954	39.01727203710951	3.638619999999987	210.73746245898997	73.99786302815315	2.301979999999989	180.00084158371618	-64.39963399699207	5.198029999999992	130.10783807163028	160.9446492166146	1.485149999999987	211.33563035047302	-82.88626860439346	8.233123562730805E-15	-134.45711152738943	84.07522452267817	-0.81682999999999	-163.59290053103942	52.92776111081532	2.5990100000000145	-236.62435137480034	89.63340827966074	0.9653500000000128	-207.97249719593734	-45.61473213114084	4.901000000000009	-150.1518263752195	174.65246249799907	-0.519799999999985	-244.28899871355242	
38	0.617	0.8520144694267567	1002.4029	-3.1093923498309217	67.02413549864119	1106.28924	140.99049198297274	78.34654264528186	1104.21003	-142.9774324589899	22.53034467661884	1177.0567	113.50133830805727	31.795673286737845	1175.27452	-120.12134159349041	-60.862165148168124	944.18497	53.43606229527505	-56.24309569647816	943.29388	-63.42600067874131	-68.8683578812896	1025.71978	-6.063285115769827	-29.9026104001419	1117.72491	-5.088459508016652	-31.72777565211566	1234.60632	-6.828180559388827	-50.97623690002024	1339.458	-9.281007710497452	51.388416938610206	1595.64661	-10.888389058205886	-94.24996698785985	1535.34947	-14.97242856533723	-76.4116867962146	1443.4186	-12.304816176916283	80.96486576169382	1471.19093	-7.017181127247457	-104.3784658881234	1594.45849	-13.617513865675251	-37.482359031580266	1861.78573	-13.494649769764672	-27.98924974802623	1756.19147	53.37980262931595	-61.46025536243732	1763.39446	-87.35997506610093	-99.91877750377164	1763.3202	-3.6686207332972587	-72.27099195457623	1577.82479	174.78108997872772	-58.672390394835546	1575.74558	-202.5354388346286	-39.95599581578364	1505.42367	448.9590148199469	15.166434276943136	1474.90381	435.1674852626805	-34.035562804575875	1464.65626	-471.09919595827307	20.223624320792396	1433.98789	-454.435084836798	79.17817691780408	1434.35917	681.7718347276863	70.36480324288857	1486.41373	693.91822571873	-11.347701149824445	1465.91864	432.3783549406039	-24.667179940603887	1384.16106	-717.5241710634302	-43.88898144536938	1434.06214	-725.9637742441726	0.6900275569760765	1426.41361	-454.9089027873051	250.8128892295112	1433.24531	775.9776926613418	180.98442357162304	1407.77497	716.6267629953828	116.0846073059817	1442.08196	686.0164621693586	15.989046889732776	1381.33927	-912.1014615776182	17.834665119724605	1358.39368	-819.8029461233397	-4.298757842746625	1392.62642	-751.4666730069276	-7.682015066520236	971.06621	171.77128039972277	-55.90200459985809	529.97626	153.70641221190337	-52.287413636325525	526.4119	67.99015701448559	-5.942898383466371	526.11487	110.09558194438276	5.150883511200519	970.47215	-178.37735194526803	-52.24883102921444	530.19903	-168.21573002131933	-54.99756250865879	525.89209	-82.51404744255771	-5.769842091665495	525.07526	-121.14520034558586	4.612475536345784	489.80292	112.15969802238065	-65.2131471967757	84.35659999999999	159.73474426628343	-62.41647813726514	81.46055	94.29661136325528	6.431813916229579	491.5851	-122.67508848773817	-43.180886302926766	84.35660000000001	-179.61493100747583	-45.2131282645801	80.71798	-114.16418467661882	-102.54497907994454	0.07425999999999287	116.5733938275516	65.85805157663908	0.5940599999999917	136.02998858176954	39.01727203710951	3.638619999999987	210.73746245898997	73.99786302815315	2.301979999999989	180.00084158371618	-64.39963399699207	5.272289999999992	130.10783807163028	160.9446492166146	1.485149999999987	211.33563035047302	-82.88626860439346	-0.07425999999999178	-134.45711152738943	84.07522452267817	-0.81682999999999	-163.59290053103942	52.92776111081532	2.5990100000000145	-236.62435137480034	89.63340827966074	0.8910900000000128	-207.97249719593734	-45.61473213114084	4.901000000000009	-150.1518263752195	174.65246249799907	-0.519799999999985	-244.28899871355242	
39	0.633	0.8891444694267568	1002.4029	-3.173703396315954	67.06126549864119	1106.3635	140.9261809364877	78.31936159879682	1104.21003	-143.07887350547492	22.503163630133812	1177.0567	113.39989726157224	31.805622240252813	1175.27452	-120.28709368646047	-60.82503514816812	944.18497	53.371751248790005	-56.20596569647816	943.29388	-63.49031172522634	-68.8312328812896	1025.79404	-6.127587502000819	-29.8654854001419	1117.72491	-5.152761894247647	-31.690650652115664	1234.60632	-6.892482945619821	-51.00341794650528	1339.458	-9.382448756982484	51.324105892125175	1595.72087	-10.925519058205888	-94.27714803434488	1535.34947	-15.073869611822255	-76.43886784269964	1443.4186	-12.406257223401312	81.00199576169382	1471.19093	-7.081492173732488	-104.40563827435439	1594.45849	-13.718949912160285	-37.81384955726636	1861.85999	-13.514551337048644	-28.117871840996294	1756.19147	53.305542629315944	-61.72743984163837	1763.46871	-87.34273797313087	-100.1859569829727	1763.24594	-3.6513923005812274	-72.29817300106126	1577.82479	174.67964893224269	-58.80100382755161	1575.74558	-202.6096938346286	-39.983176862268635	1505.42367	448.8575737734618	15.139248230458094	1474.90381	435.0660528764496	-34.12704623729189	1464.65626	-471.2377620047581	20.132127227822338	1433.98789	-454.57364722302907	79.04955482483399	1434.28492	681.6975747276862	70.17187876368752	1486.33947	693.80684071873	-11.439184582540491	1465.84438	432.2397888941189	-24.65723598708894	1384.23532	-717.6899144961463	-43.980473538339425	1434.1364	-726.1023452906576	0.5985441242600018	1426.41361	-455.0474688337901	250.5828260900562	1433.0968	775.930613707827	180.81867147865302	1407.70071	716.6168140418678	115.89168282678065	1442.0077	685.9050771693586	15.833243750277632	1381.6363	-912.2771626241032	17.780311687008577	1358.69071	-820.0058232163095	-4.353119935716734	1392.77494	-751.6695550998976	-7.6448850665202315	971.06621	171.70696935323772	-55.800568553373054	529.97626	153.67923982567237	-52.18597758984049	526.4119	67.9629846282546	-5.841465997235382	526.11487	110.06839589789773	5.188008511200522	970.47215	-178.44165433149902	-52.211701029214446	530.19903	-168.28004106780435	-54.99756250865879	525.89209	-82.51404744255771	-5.732712091665498	525.07526	-121.2095113920709	4.713911582830804	489.80292	112.13252563614967	-65.2131471967757	84.35659999999999	159.73474426628343	-62.41647813726514	81.46055	94.29661136325528	6.431813916229579	491.5851	-122.67508848773817	-43.180886302926766	84.35660000000001	-179.61493100747583	-45.2131282645801	80.71798	-114.16418467661882	-102.54497907994454	0.07425999999999287	116.5733938275516	65.85805157663908	0.5940599999999917	136.02998858176954	39.01727203710951	3.638619999999987	210.73746245898997	73.99786302815315	2.301979999999989	180.00084158371618	-64.39963399699207	5.272289999999992	130.10783807163028	160.9817792166146	1.485149999999987	211.271319303988	-82.88626860439346	-0.07425999999999178	-134.45711152738943	84.07522452267817	-0.81682999999999	-163.59290053103942	52.92776111081532	2.5990100000000145	-236.62435137480034	89.63340827966074	0.8910900000000128	-207.97249719593734	-45.61473213114084	4.901000000000009	-150.1518263752195	174.65246249799907	-0.519799999999985	-244.28899871355242	
40	0.65	0.8891444694267568	1002.4029	-3.173703396315954	67.0983954986412	1106.3635	140.86186989000268	78.35649159879682	1104.21003	-143.14318455195993	22.54029363013381	1177.13096	113.3355862150872	31.842747240252816	1175.27452	-120.35139607269147	-60.78790514816812	944.18497	53.30744020230499	-56.20596569647816	943.29388	-63.49031172522634	-68.8312328812896	1025.79404	-6.127587502000819	-29.89266644662693	1117.72491	-5.254202940732678	-31.717831698600694	1234.60632	-6.993923992104855	-50.966287946505275	1339.458	-9.446759803467518	51.296933505894174	1595.72087	-11.026955104690922	-94.36863646706092	1535.34947	-15.212426998053251	-76.46604888918466	1443.4186	-12.507698269886351	80.93768471520879	1471.26519	-7.1186221737324855	-104.49713036732444	1594.45849	-13.857520958645319	-38.18247508295245	1861.85999	-13.470133197593547	-28.28361027371232	1756.19147	53.295590015546935	-61.920364320839425	1763.46871	-87.45412297313086	-100.31457041568873	1763.17168	-3.7256473005812283	-72.32535404754628	1577.82479	174.57820788575765	-58.89250092052164	1575.74558	-202.7482562208596	-40.01034924849964	1505.42367	448.7561377269768	15.047764797742076	1474.90381	434.92748682996444	-34.25566833026198	1464.582	-471.3120220047581	20.04064379510632	1433.91363	-454.7122132695141	78.856630345633	1434.28492	681.5861897276862	70.00613167071742	1486.26521	693.796883104961	-11.466365629025518	1465.91864	432.1383478476339	-24.748719419804956	1384.30957	-717.8284805426313	-44.00765458482448	1434.21066	-726.2037863371426	0.5070520312899873	1426.41361	-455.1860398802752	250.41708265734013	1432.94828	775.9206697543119	180.62574699945196	1407.55219	716.5054290418678	115.76306073381056	1441.93345	685.8308171693586	15.741760317561557	1381.85907	-912.4157286705884	17.753125640523592	1358.76497	-820.1072556025406	-4.380292321947763	1392.92345	-751.7709911463827	-7.6077600665202425	971.14047	171.64266696700673	-55.69913616714206	530.05052	153.65205377918733	-52.084545203609494	526.4119	67.93579858176956	-5.804335997235377	526.18912	110.00408485141268	5.160827464715496	970.47215	-178.54309537798406	-52.27601207569946	530.19903	-168.31717106780434	-54.96043250865878	525.89209	-82.57835848904273	-5.732712091665498	525.07526	-121.2095113920709	4.778222629315842	489.80292	112.16965563614966	-65.2131471967757	84.35659999999999	159.73474426628343	-62.35217575103414	81.53481	94.33373636325527	6.468943916229577	491.5851	-122.7393995342232	-43.180886302926766	84.35660000000001	-179.61493100747583	-45.2131282645801	80.71798	-114.16418467661882	-102.54497907994454	0.07425999999999287	116.5733938275516	65.85805157663908	0.6683199999999917	136.02998858176954	39.01727203710951	3.7128799999999873	210.73746245898997	73.99786302815315	2.376239999999989	180.00084158371618	-64.39963399699207	5.272289999999992	130.10783807163028	160.9817792166146	1.559409999999987	211.271319303988	-82.88626860439346	-0.07425999999999178	-134.45711152738943	84.07522452267817	-0.81682999999999	-163.59290053103942	52.92776111081532	2.5990100000000145	-236.62435137480034	89.63340827966074	0.8910900000000128	-207.97249719593734	-45.61473213114084	4.901000000000009	-150.1518263752195	174.65246249799907	-0.519799999999985	-244.28899871355242	
